<?xml version="1.0" encoding="utf-8" ?>
<svg xmlns="http://www.w3.org/2000/svg" xmlns:xlink="http://www.w3.org/1999/xlink" width="40" height="40"
     viewBox="0 0 201 200">
    <path fill="#9fc754"
          d="M171.925 42.354C172.541 42.3072 173.373 42.3833 173.998 42.4184C184.166 42.99 193.048 48.7301 196.954 58.247C202.314 71.3073 197.063 87.1863 183.762 92.9332C175.481 96.5113 167.889 95.5154 159.767 92.3287C155.819 94.7193 155.037 95.9162 153.73 100.333C154.529 102.061 156.601 104.848 158.161 105.916C160.261 107.354 166.248 104.397 168.901 104.018C175.782 103.036 182.438 104.514 188.08 108.525C193.705 112.476 197.515 118.513 198.662 125.29C202.711 149.403 176.403 165.368 157.122 151.61C153.822 149.855 149.552 143.956 148.21 140.424C144.874 131.645 145.885 125.526 149.317 117.305C147.405 114.418 141.779 109.124 139.138 106.485L118.149 85.541C115.546 82.9439 107.456 75.4977 105.603 72.0731C105.32 70.0997 109.61 66.7273 110.346 65.7553C114.616 60.1108 117.997 65.3335 121.968 69.3571L133.315 80.8032C135.631 83.1324 139.237 87.0931 141.894 88.7012C144.262 87.2612 147.355 83.8726 149.28 81.7388C147.741 78.8803 146.573 74.7171 146.261 71.5056C145.558 64.3471 147.733 57.203 152.307 51.6517C157.681 45.1903 163.859 43.0778 171.925 42.354Z"/>
    <path fill="#78a350"
          d="M125.889 106.007C126.73 105.968 127.503 106.039 128.201 106.527C130.128 107.871 135.019 112.273 135.449 114.332C135.166 116.972 130.752 120.652 128.783 122.602L118.971 132.388C111.816 139.545 107.319 141.645 116.93 149.437C118.069 149.014 119.212 148.603 120.359 148.203C122.467 147.475 124.513 146.913 126.719 146.534C138.738 144.47 151.367 152.507 155.216 163.986C157.437 170.788 156.893 178.19 153.7 184.593C150.557 190.882 145.022 195.645 138.335 197.814C131.769 199.984 124.051 199.262 117.913 196.13C111.615 192.945 106.853 187.372 104.689 180.655C102.303 173.149 104.132 166.586 107.644 159.78C105.016 157.323 102.901 154.076 98.8703 153.833C95.9459 155.054 94.0616 156.859 92.2331 159.469C92.4602 161.199 93.4912 163.778 94.0319 165.602C95.6277 171.111 95.4112 176.988 93.4144 182.365C91.0717 188.694 86.298 193.825 80.1544 196.617C73.5871 199.584 66.1131 199.834 59.3621 197.313C52.7708 194.901 47.4258 189.941 44.529 183.548C36.7581 166.386 49.8109 145.751 68.7854 146.223C73.614 146.343 77.2273 147.722 81.6684 149.413C83.3147 148.165 90.4955 140.7 92.3067 138.883L115.333 115.823C117.924 113.229 123.048 107.737 125.889 106.007Z"/>
    <path fill="#9fc754"
          d="M0 63.2356L0.0692791 63.1075C0.41069 62.463 0.982341 60.7513 1.22292 59.9805C6.0236 44.5993 24.2928 38.0755 38.6107 45.4223C44.747 48.6059 49.3825 54.0782 51.5137 60.6545C53.1136 65.7391 53.1472 71.1873 51.6103 76.2913C51.0888 78.0829 50.2167 80.2969 49.7972 82.0105L49.8557 82.0977C51.2072 84.0865 58.5343 91.154 60.5485 93.1652L83.9462 116.524C86.829 119.402 90.2223 122.557 92.7087 125.713C94.6329 128.155 88.2441 133.411 86.5953 134.797C83.1608 137.683 78.382 131.039 76.2562 128.916C72.1964 124.915 68.1646 120.886 64.1613 116.828C62.5985 115.256 61.1231 113.856 59.5178 112.346C56.0849 109.118 51.3504 114.364 49.5508 116.97C52.5802 125.743 54.7551 132.258 50.2628 141.507C47.2224 147.901 41.7409 152.806 35.0493 155.12C28.1013 157.44 20.5161 156.901 13.9652 153.624C6.85617 150.11 3.06428 144.803 0.612944 137.449C0.42657 136.89 0.339867 136.385 0 135.916L0 124.57C0.276283 124.144 0.492819 123.327 0.643133 122.831C5.09148 108.163 19.4949 100.761 34.096 105.05C35.8165 105.555 37.5451 106.141 39.2939 106.772C41.4903 105.115 44.0118 102.329 45.2318 99.863C43.9484 96.135 42.3641 94.9041 39.5566 92.1838C25.2828 98.316 11.1604 95.4044 2.97694 81.503C1.70807 79.3475 1.16157 76.6834 0.0736676 74.5613L0 74.42L0 63.2356Z"/>
    <path fill="#78a350"
          d="M63.2635 0L73.9484 0L74.1015 0.0807069C74.9784 0.534174 76.2451 0.926953 77.197 1.22692C91.1311 5.59804 98.0762 20.5358 93.9187 34.2047C93.6478 35.0957 92.318 38.9178 92.6322 39.4302C98.7218 49.3605 102.234 44.9136 106.663 39.2765C100.392 25.2576 103.956 9.95013 118.35 2.50672C120.047 1.62938 123.421 0.836588 124.757 0L135.227 0C138.615 1.59627 142.575 2.37684 145.691 4.70347C149.006 7.17814 152.015 10.6838 153.796 14.3919C156.935 20.9265 157.38 28.4331 155.034 35.2926C152.72 41.8473 147.867 47.196 141.568 50.1342C132.924 54.2612 125.636 52.8055 117.083 49.7769C113.429 52.1692 110.145 56.2503 107.051 59.3517C103.126 63.2849 74.8841 92.4634 72.5351 92.9709C71.5924 93.1745 70.6634 92.789 69.895 92.2617C68.1667 91.0755 63.624 86.8179 63.2819 84.7804C63.124 83.8403 63.7696 82.9123 64.2962 82.1899C66.1627 79.629 68.7298 77.3878 70.9723 75.1459L82.3937 63.7993C84.369 61.8564 86.916 59.5565 88.4696 57.3361C86.6683 53.8449 84.9368 52.4535 82.0357 49.846C81.1032 50.0766 79.5929 50.548 78.7003 50.8897C66.5212 55.5523 51.9624 50.966 45.5006 39.111C42.1462 32.8479 41.4147 25.5095 43.4668 18.7075C45.8621 10.6576 51.1631 4.29456 59.1597 1.58988C60.2624 1.21691 62.1662 0.610513 63.1162 0.0834943L63.2635 0Z"/>
</svg>